<?xml version="1.0" encoding="UTF-8" standalone="no"?>
<!-- Created with Inkscape (http://www.inkscape.org/) -->

<svg
   width="72.648537mm"
   height="41.218067mm"
   viewBox="0 0 72.648537 41.218067"
   version="1.1"
   id="svg5"
   xml:space="preserve"
   xmlns="http://www.w3.org/2000/svg"
   xmlns:svg="http://www.w3.org/2000/svg"><defs
     id="defs2" /><g
     id="layer1"
     transform="translate(94.97062,-121.92888)"><g
       id="g1457"
       transform="translate(56.03777,28.804462)"><path
         style="fill:#000000;stroke-width:0.225304"
         d="m -129.34617,130.53236 c -0.84469,-0.25277 -1.91123,-1.26216 -2.3043,-2.18082 -0.25215,-0.58932 -0.31021,-3.31061 -0.31021,-14.54073 V 99.995079 l 0.50694,-1.004356 c 0.33402,-0.66177 0.81434,-1.176324 1.40815,-1.508513 l 0.90122,-0.504156 h 14.08153 14.08153 l 0.88432,0.503229 c 0.551291,0.313719 1.081581,0.877172 1.408151,1.49621 l 0.52384,0.99298 -0.002,13.651817 c -6.8e-4,8.26427 -0.0888,13.96695 -0.2231,14.45037 -0.26627,0.95847 -1.40294,2.0866 -2.456591,2.43814 -0.92409,0.30831 -27.47486,0.3284 -28.50023,0.0215 z m 27.351,-14.86144 v -11.26523 h -13.06767 -13.06766 v 11.26523 11.26522 h 13.06766 13.06767 z m -19.78402,3.07427 c -1.50479,-1.52917 -2.29583,-2.5034 -2.29583,-2.82749 0,-0.85533 0.57403,-1.6518 2.65415,-3.68268 2.13306,-2.08256 2.77501,-2.36801 3.50681,-1.55939 0.6996,0.77305 0.45278,1.36005 -1.35135,3.21397 l -1.72422,1.7718 1.72422,1.80473 c 1.79535,1.87917 2.07769,2.55053 1.37017,3.25804 -0.80897,0.80897 -1.4738,0.47022 -3.88395,-1.97898 z m 9.54876,1.97898 c -0.72537,-0.72535 -0.43408,-1.41789 1.38072,-3.28277 l 1.73477,-1.78265 -1.73477,-1.74501 c -1.84723,-1.85813 -2.12645,-2.54992 -1.32275,-3.27725 0.79524,-0.71969 1.35976,-0.45945 3.46765,1.59853 2.25403,2.20067 2.76131,2.96852 2.54642,3.85444 -0.0794,0.32743 -1.12499,1.58385 -2.32348,2.79205 -2.28545,2.30395 -2.95711,2.63411 -3.74856,1.84266 z"
         id="path1957" /></g></g></svg>
